<?xml version="1.0" standalone="no"?>
<!DOCTYPE svg PUBLIC "-//W3C//DTD SVG 20010904//EN"
 "http://www.w3.org/TR/2001/REC-SVG-20010904/DTD/svg10.dtd">
<svg version="1.0" xmlns="http://www.w3.org/2000/svg"
 width="1276.000000pt" height="2197.000000pt" viewBox="0 0 1276.000000 2197.000000"
 preserveAspectRatio="xMidYMid meet">
<metadata>
Created by potrace 1.16, written by Peter Selinger 2001-2019
</metadata>
<g transform="translate(0.000000,2197.000000) scale(0.100000,-0.100000)"
fill="#000000" stroke="none">
<clipPath id="clip">
    <path  d="M36 21908 c-12 -150 -37 -8366 -34 -11362 l3 -3208 2120 -1224 c1166
    -673 2123 -1224 2126 -1224 3 0 14 7 25 16 18 14 18 15 -3 4 l-23 -11 0 2451
    0 2451 57 -32 c331 -189 4178 -2411 4182 -2415 3 -4 1 -9 -5 -11 -6 -2 -20
    -11 -30 -19 -18 -14 -18 -15 3 -4 l23 11 2 -2443 3 -2443 2119 -1222 c1166
    -673 2125 -1223 2132 -1223 7 0 16 4 19 10 3 6 -1 7 -9 4 -14 -6 -16 704 -16
    7327 l-1 7334 -6338 3648 c-3486 2006 -6341 3647 -6344 3647 -3 0 -8 -28 -11
    -62z m6374 -5990 l2085 -1204 3 -2438 c2 -2320 1 -2438 -15 -2432 -10 4 -966
    554 -2125 1223 l-2108 1216 0 2439 0 2438 38 -19 c20 -11 975 -562 2122 -1223z"/>
</clipPath>
</g>
</svg>
